<svg xmlns="http://www.w3.org/2000/svg" viewBox="0 0 57.834 57.955"><defs><style>.a{fill:#f4825c;stroke:#707070;}.b{fill:#e74610;}.c{stroke:none;}.d{fill:none;}</style></defs><g transform="translate(-0.498 0.199)"><g transform="translate(0 0)"><g class="a" transform="translate(1.009 0.934)"><circle class="c" cx="27.989" cy="27.989" r="27.989"/><circle class="d" cx="27.989" cy="27.989" r="27.489"/></g><g transform="translate(-26.502 -27.6)"><g transform="translate(27 27.4)"><path class="b" d="M55.917,85.355A28.978,28.978,0,1,1,84.834,56.317,29.012,29.012,0,0,1,55.917,85.355Zm0-54.31A25.272,25.272,0,1,0,81.189,56.317,25.253,25.253,0,0,0,55.917,31.045Z" transform="translate(-27 -27.4)"/><g transform="translate(18.529 18.65)"><path class="b" d="M59.638,63.344a1.827,1.827,0,0,1-1.337-.486l-8.5-8.5a1.762,1.762,0,0,1,0-2.551l8.5-8.5a1.8,1.8,0,0,1,2.551,2.551l-7.168,7.168,7.168,7.169a1.762,1.762,0,0,1,0,2.551A1.234,1.234,0,0,1,59.638,63.344Z" transform="translate(-40.745 -42.75)"/><path class="b" d="M44.133,63.323a1.827,1.827,0,0,1-1.336-.486,1.762,1.762,0,0,1,0-2.551l7.169-7.169L42.8,45.948A1.8,1.8,0,0,1,45.348,43.4l8.5,8.5a1.762,1.762,0,0,1,0,2.551l-8.5,8.5A1.814,1.814,0,0,1,44.133,63.323Z" transform="translate(-42.25 -42.729)"/></g></g></g></g></g></svg>