<svg xmlns="http://www.w3.org/2000/svg" xmlns:xlink="http://www.w3.org/1999/xlink" viewBox="0 0 272 171.416"><defs><style>.a{fill:none;}.b{clip-path:url(#a);}.c{fill:#ffede6;}.d{clip-path:url(#b);}.e,.g{fill:#f4825c;}.e,.f{stroke:#e74610;stroke-width:5px;}.f,.i{fill:#ffc3af;}.g{stroke:#707070;}.h{fill:#e74610;}.j{stroke:none;}</style><clipPath id="a"><rect class="a" width="272" height="163.693"/></clipPath><clipPath id="b"><rect class="a" width="125.526" height="171.415"/></clipPath></defs><g transform="translate(-35 -180)"><g class="b" transform="translate(35 187.722)"><g transform="translate(-53 -190)"><circle class="c" cx="130" cy="130" r="130" transform="translate(58 195)"/></g></g><g class="d" transform="translate(104.737 180)"><g transform="translate(-104.737 -179)"><g class="e" transform="translate(104.737 179)"><path class="j" d="M30,0H95.526a30,30,0,0,1,30,30V176.415a0,0,0,0,1,0,0H0a0,0,0,0,1,0,0V30A30,30,0,0,1,30,0Z"/><path class="a" d="M30,2.5H95.526a27.5,27.5,0,0,1,27.5,27.5V171.415a2.5,2.5,0,0,1-2.5,2.5H5a2.5,2.5,0,0,1-2.5-2.5V30A27.5,27.5,0,0,1,30,2.5Z"/></g><g class="f" transform="translate(116.611 209.533)"><rect class="j" width="102.626" height="145.881"/><rect class="a" x="2.5" y="2.5" width="97.626" height="140.881"/></g><g transform="translate(138.502 247.614)"><g transform="translate(0 0)"><g class="g" transform="translate(1.009 0.934)"><circle class="j" cx="27.989" cy="27.989" r="27.989"/><circle class="a" cx="27.989" cy="27.989" r="27.489"/></g><g transform="translate(-26.502 -27.6)"><g transform="translate(27 27.4)"><path class="h" d="M55.917,85.355A28.978,28.978,0,1,1,84.834,56.317,29.012,29.012,0,0,1,55.917,85.355Zm0-54.31A25.272,25.272,0,1,0,81.189,56.317,25.253,25.253,0,0,0,55.917,31.045Z" transform="translate(-27 -27.4)"/><g transform="translate(18.529 18.65)"><path class="h" d="M59.638,63.344a1.827,1.827,0,0,1-1.337-.486l-8.5-8.5a1.762,1.762,0,0,1,0-2.551l8.5-8.5a1.8,1.8,0,0,1,2.551,2.551l-7.168,7.168,7.168,7.169a1.762,1.762,0,0,1,0,2.551A1.234,1.234,0,0,1,59.638,63.344Z" transform="translate(-40.745 -42.75)"/><path class="h" d="M44.133,63.323a1.827,1.827,0,0,1-1.336-.486,1.762,1.762,0,0,1,0-2.551l7.169-7.169L42.8,45.948A1.8,1.8,0,0,1,45.348,43.4l8.5,8.5a1.762,1.762,0,0,1,0,2.551l-8.5,8.5A1.814,1.814,0,0,1,44.133,63.323Z" transform="translate(-42.25 -42.729)"/></g></g></g></g></g><circle class="h" cx="2.969" cy="2.969" r="2.969" transform="translate(149.689 194.267)"/><rect class="h" width="27.141" height="2.544" transform="translate(159.019 195.963)"/></g></g><rect class="i" width="147" height="3" transform="translate(99 348.414)"/></g></svg>