<svg xmlns="http://www.w3.org/2000/svg" xmlns:xlink="http://www.w3.org/1999/xlink" viewBox="0 0 272 171.416"><defs><style>.a{fill:none;}.b{clip-path:url(#a);}.c{fill:#ffede6;}.d{clip-path:url(#b);}.e{fill:#f4825c;}.e,.f{stroke:#e74610;stroke-width:5px;}.f,.j{fill:#ffc3af;}.g{fill:#e74610;}.h{fill:#56b68b;stroke:#707070;}.i{fill:#018952;fill-rule:evenodd;}.k{stroke:none;}</style><clipPath id="a"><rect class="a" width="272" height="163.693"/></clipPath><clipPath id="b"><rect class="a" width="125.526" height="171.415"/></clipPath></defs><g transform="translate(-35 -180)"><g class="b" transform="translate(35 187.722)"><g transform="translate(-53 -190)"><circle class="c" cx="130" cy="130" r="130" transform="translate(58 195)"/></g></g><g class="d" transform="translate(104.737 180)"><g transform="translate(-104.737 -179)"><g class="e" transform="translate(104.737 179)"><path class="k" d="M30,0H95.526a30,30,0,0,1,30,30V176.415a0,0,0,0,1,0,0H0a0,0,0,0,1,0,0V30A30,30,0,0,1,30,0Z"/><path class="a" d="M30,2.5H95.526a27.5,27.5,0,0,1,27.5,27.5V171.415a2.5,2.5,0,0,1-2.5,2.5H5a2.5,2.5,0,0,1-2.5-2.5V30A27.5,27.5,0,0,1,30,2.5Z"/></g><g class="f" transform="translate(116.611 209.533)"><rect class="k" width="102.626" height="145.881"/><rect class="a" x="2.5" y="2.5" width="97.626" height="140.881"/></g><circle class="g" cx="2.969" cy="2.969" r="2.969" transform="translate(149.689 194.267)"/><rect class="g" width="27.141" height="2.544" transform="translate(159.019 195.963)"/></g></g><g transform="translate(138.502 248.613)"><g transform="translate(0 0)"><g class="h" transform="translate(1.009 0.934)"><circle class="k" cx="27.989" cy="27.989" r="27.989"/><circle class="a" cx="27.989" cy="27.989" r="27.489"/></g><path class="i" d="M47.664,22.747l2.3,2.3L31.8,43.209l-2.3,2.3-2.3-2.3-8.978-8.978,2.3-2.3L29.5,40.913ZM34.092,5A29.092,29.092,0,1,1,5,34.092,29.079,29.079,0,0,1,34.092,5Zm0,3.967A25.16,25.16,0,1,1,8.967,34.092,25.173,25.173,0,0,1,34.092,8.967Z" transform="translate(-5 -5)"/></g></g><rect class="j" width="147" height="3" transform="translate(99 348.414)"/><rect class="j" width="147" height="3" transform="translate(99 348.414)"/></g></svg>