<svg xmlns="http://www.w3.org/2000/svg" viewBox="0 0 58.184 58.184"><defs><style>.a{fill:#56b68b;stroke:#707070;}.b{fill:#018952;fill-rule:evenodd;}.c{stroke:none;}.d{fill:none;}</style></defs><g transform="translate(-138.502 -248.613)"><g transform="translate(138.502 248.613)"><g transform="translate(0 0)"><g class="a" transform="translate(1.009 0.934)"><circle class="c" cx="27.989" cy="27.989" r="27.989"/><circle class="d" cx="27.989" cy="27.989" r="27.489"/></g><path class="b" d="M47.664,22.747l2.3,2.3L31.8,43.209l-2.3,2.3-2.3-2.3-8.978-8.978,2.3-2.3L29.5,40.913ZM34.092,5A29.092,29.092,0,1,1,5,34.092,29.079,29.079,0,0,1,34.092,5Zm0,3.967A25.16,25.16,0,1,1,8.967,34.092,25.173,25.173,0,0,1,34.092,8.967Z" transform="translate(-5 -5)"/></g></g></g></svg>